<svg xmlns="http://www.w3.org/2000/svg" width="15" height="15" viewBox="0 0 15 15">
    <path fill="#FFF" fill-rule="nonzero" d="M13.231 8.56c-.322 2.705-2.447 4.83-5.087 5.088V15H6.856v-1.352A5.634 5.634 0 0 1 1.77 8.56H.417V7.273h1.352c.322-2.705 2.447-4.83 5.087-5.087V.833h1.288v1.353c2.704.322 4.83 2.447 5.087 5.087h1.352V8.56h-1.352zM7.5 3.41a4.48 4.48 0 0 0-4.508 4.507A4.48 4.48 0 0 0 7.5 12.424a4.48 4.48 0 0 0 4.508-4.507A4.48 4.48 0 0 0 7.5 3.409zM7.417 5a3 3 0 1 1 0 6 3 3 0 0 1 0-6z"/>
</svg>
