<svg xmlns="http://www.w3.org/2000/svg" width="40" height="40" viewBox="0 0 40 40">
    <g fill="#FFF" fill-rule="nonzero">
        <path d="M23.684 20.263a3.947 3.947 0 1 1-7.894 0 3.947 3.947 0 0 1 7.894 0z"/>
        <path d="M29.008 13.185a3.58 3.58 0 0 0-.864-1.33 3.578 3.578 0 0 0-1.329-.863c-.407-.159-1.019-.347-2.145-.398-1.219-.056-1.584-.068-4.67-.068s-3.451.012-4.67.068c-1.126.051-1.738.24-2.145.398-.502.185-.956.48-1.329.864-.384.373-.679.827-.864 1.329-.159.407-.347 1.019-.398 2.145-.056 1.219-.068 1.584-.068 4.67s.012 3.451.068 4.67c.051 1.126.24 1.738.398 2.145.185.502.48.956.864 1.33.373.383.827.678 1.329.863.407.159 1.019.347 2.145.398 1.219.056 1.584.068 4.67.068s3.451-.012 4.67-.068c1.126-.05 1.738-.24 2.145-.398a3.827 3.827 0 0 0 2.193-2.193c.159-.407.347-1.019.398-2.145.056-1.219.068-1.584.068-4.67s-.012-3.451-.068-4.67c-.05-1.126-.24-1.738-.398-2.145zM20 25.934a5.934 5.934 0 1 1 0-11.868 5.934 5.934 0 0 1 0 11.868zm6.169-10.716a1.387 1.387 0 1 1 0-2.773 1.387 1.387 0 0 1 0 2.773z"/>
        <path d="M20 0C8.956 0 0 8.956 0 20s8.956 20 20 20 20-8.956 20-20S31.044 0 20 0zm11.415 24.735c-.055 1.222-.25 2.057-.534 2.788a5.872 5.872 0 0 1-3.358 3.358c-.73.284-1.566.478-2.788.534-1.225.056-1.616.07-4.735.07s-3.51-.014-4.735-.07c-1.222-.056-2.057-.25-2.787-.534a5.626 5.626 0 0 1-2.035-1.324 5.628 5.628 0 0 1-1.324-2.034c-.284-.73-.478-1.566-.534-2.788-.056-1.225-.07-1.616-.07-4.735s.014-3.51.07-4.735c.055-1.222.25-2.057.533-2.788.289-.766.741-1.46 1.325-2.034a5.625 5.625 0 0 1 2.034-1.324c.731-.284 1.566-.478 2.788-.534 1.225-.056 1.616-.07 4.735-.07s3.51.014 4.735.07c1.222.056 2.057.25 2.788.533a5.63 5.63 0 0 1 2.034 1.325 5.627 5.627 0 0 1 1.324 2.034c.284.731.479 1.566.534 2.788.056 1.225.07 1.616.07 4.735s-.014 3.51-.07 4.735z"/>
    </g>
</svg>
