<svg xmlns="http://www.w3.org/2000/svg" width="32" height="30" viewBox="0 0 32 30">
    <path fill="#FA7369" fill-rule="nonzero" d="M22.397 0A9.406 9.406 0 0 0 16 2.5 9.407 9.407 0 0 0 9.603 0C4.308 0 0 4.428 0 9.87c0 3.976 2.536 8.443 7.538 13.276 3.497 3.379 6.95 5.727 7.096 5.825l1.352.915 1.353-.914c.145-.098 3.605-2.446 7.108-5.824C29.46 18.315 32 13.848 32 9.87 32 4.428 27.692 0 22.397 0m0 2.53c3.944 0 7.142 3.286 7.142 7.34 0 7.837-13.552 16.988-13.552 16.988S2.462 17.708 2.462 9.87c0-4.054 3.197-7.34 7.14-7.34 2.804 0 5.23 1.662 6.398 4.078 1.169-2.416 3.594-4.078 6.397-4.078"/>
</svg>
