<svg xmlns="http://www.w3.org/2000/svg" width="14" height="18" viewBox="0 0 14 18">
    <g fill="#FFF" fill-rule="nonzero">
        <path d="M7 3c2.206 0 4 1.794 4 4s-1.794 4-4 4-4-1.794-4-4 1.794-4 4-4zm0 6.924A2.927 2.927 0 0 0 9.924 7 2.927 2.927 0 0 0 7 4.076 2.927 2.927 0 0 0 4.076 7 2.927 2.927 0 0 0 7 9.924z"/>
        <path d="M7 0c3.86 0 7 2.984 7 6.653 0 2.116-1.867 5.268-2.98 6.958-.732 1.112-1.519 2.17-2.215 2.98C7.687 17.892 7.287 18 7 18c-.292 0-.67-.109-1.784-1.41A31.14 31.14 0 0 1 3 13.613c-1.12-1.695-3-4.852-3-6.96C0 2.985 3.14 0 7 0zM3.77 12.79c1.435 2.215 2.753 3.712 3.237 4.094.485-.37 1.782-1.831 3.238-4.087 1.68-2.604 2.645-4.843 2.645-6.144 0-3.087-2.642-5.598-5.89-5.598-3.248 0-5.89 2.511-5.89 5.598 0 1.293.97 3.53 2.66 6.137z"/>
    </g>
</svg>
