<svg xmlns="http://www.w3.org/2000/svg" width="26" height="26" viewBox="0 0 26 26">
    <path fill="#1D7C7E" fill-rule="nonzero" d="M25.682 24.153l-6.251-6.25a10.918 10.918 0 0 0 2.483-6.946C21.914 4.908 17.006 0 10.957 0 4.903 0 0 4.908 0 10.957c0 6.05 4.903 10.957 10.957 10.957a10.9 10.9 0 0 0 6.94-2.478l6.251 6.246a1.082 1.082 0 0 0 1.534 0 1.076 1.076 0 0 0 0-1.529zm-14.725-4.42c-4.844 0-8.781-3.937-8.781-8.776s3.937-8.781 8.781-8.781c4.84 0 8.782 3.942 8.782 8.781 0 4.84-3.943 8.776-8.782 8.776z"/>
</svg>
