<svg xmlns="http://www.w3.org/2000/svg" width="34" height="42" viewBox="0 0 34 42">
    <g fill="#FFF" fill-rule="nonzero">
        <path d="M16.756 0C9.766.103 4.215 6 4.215 13.036v13.553c0 .259-.154.518-.36.673L.36 29.848c-.206.155-.36.414-.36.673v4.138c0 .466.36.88.874.88h16.088V0h-.206z"/>
        <path d="M33.37 29.856l-3.494-2.582c-.206-.155-.36-.414-.36-.672V12.81C29.516 5.734 23.811 0 16.77 0v35.538h16.088a.868.868 0 0 0 .874-.878v-4.132c0-.258-.103-.517-.36-.672z"/>
        <path d="M11.115 35.538c0 3.577 2.524 6.462 5.654 6.462s5.654-2.885 5.654-6.462H11.115z"/>
    </g>
</svg>
