<svg xmlns="http://www.w3.org/2000/svg" width="20" height="21" viewBox="0 0 20 21">
    <g fill="#9DE8F4" fill-rule="nonzero">
        <path d="M4.88 5.691c-.354.06-.516.803-.36 1.658.143.785.503 1.393.838 1.439.424 1.118 1.096 2.206 1.927 3 .47.45.99.806 1.545 1.023.382.148.781.23 1.191.23.41 0 .808-.082 1.19-.23.574-.224 1.113-.598 1.595-1.07.81-.793 1.467-1.863 1.882-2.963.32-.092.656-.679.792-1.43.148-.814.009-1.524-.312-1.642.012-.2.019-.4.017-.606C15.18 2.15 13.413.2 10.63.018 8.201-.142 6.373.803 5.54 2.373c-.28.528-.44 1.423-.502 2.141A4.79 4.79 0 0 0 4.89 5.68h.01l-.001.01a.15.15 0 0 0-.018.001zM18.626 14.812c-.886-1.122-1.818-1.303-2.216-1.377a2.17 2.17 0 0 1-.122-.024c-.04-.01-.081-.015-.122-.023l.03.057c.107.223.18.454.22.69a1.283 1.283 0 0 1 .734 1.833c-.23.422-.677.684-1.166.684-.215 0-.43-.053-.622-.153a1.283 1.283 0 0 1-.542-1.752c.165-.303.448-.525.785-.624a1.887 1.887 0 0 0-.48-.854l-.236-.014c-.361-.022-.706-.04-.986-.095-.326.846-3.901 3.327-3.901 3.327s-3.575-2.482-3.9-3.327c-.282.055-.627.075-.987.095l-.2.012c-.278.24-.481.557-.56.831a.782.782 0 0 1 .248.303c.508.236.957.73 1.301 1.436a.49.49 0 0 1 .023.375c.206.52.324 1.088.324 1.565 0 .67 0 1.302-.744 1.464a.453.453 0 0 1-.287.102h-.497a.448.448 0 0 1-.452-.443.452.452 0 0 1 .452-.443h.497c.051 0 .1.008.149.025.03-.009.04-.016.04-.016.054-.096.054-.496.054-.688 0-.389-.099-.857-.272-1.292a.501.501 0 0 1-.208-.217c-.302-.619-.711-1.018-1.044-1.018-.34 0-.771.432-1.071 1.074a.51.51 0 0 1-.241.24 3.558 3.558 0 0 0-.243 1.212c0 .162 0 .59.063.691 0 0 .015.009.054.018a.455.455 0 0 1 .162-.03h.498a.45.45 0 0 1 .452.418l.003.014-.003.012a.448.448 0 0 1-.452.443h-.498a.454.454 0 0 1-.273-.091c-.284-.053-.484-.176-.611-.376-.154-.242-.182-.56-.182-1.099 0-.473.111-1.017.313-1.537a.483.483 0 0 1 .03-.332c.211-.452.479-.839.775-1.119.163-.154.338-.277.521-.367a.787.787 0 0 1 .321-.365c.04-.22.128-.446.252-.664-.03.006-.063.01-.093.017l-.123.024c-.374.072-1.226.231-2.067 1.193-.507.58-1.009 1.449-1.4 2.767a1.914 1.914 0 0 0-.02.998c.038.147.085.292.158.426C1.13 20.428 5.856 21 9.99 21h.023c4.134 0 8.858-.573 9.727-2.181.084-.155.134-.324.17-.498.06-.302.055-.62-.034-.925-.351-1.19-.794-2.008-1.25-2.584zm-3.15 3.919c0 .08-.074.146-.166.146h-.905v.886c0 .09-.067.164-.149.164h-.893c-.082 0-.148-.073-.148-.164v-.886h-.905c-.092 0-.167-.065-.167-.146v-.875c0-.08.075-.146.167-.146h.905v-.887c0-.09.066-.163.148-.163h.893c.082 0 .149.073.149.163v.887h.905c.092 0 .166.065.166.146v.875z"/>
        <ellipse cx="15.986" cy="15.357" rx="1" ry="1"/>
    </g>
</svg>
