<svg xmlns="http://www.w3.org/2000/svg" width="25" height="25" viewBox="0 0 25 25">
    <path fill="#9D9D9D" fill-rule="nonzero" d="M24.824 4.279c0-1.133-.396-2.094-1.186-2.885C22.848.572 21.886.16 20.753.16c-1.164 0-2.142.412-2.932 1.234-.791.79-1.186 1.752-1.186 2.885v.417l-9.103 5.352c-.855-1.1-1.934-1.65-3.237-1.65-1.165 0-2.142.41-2.933 1.233-.79.791-1.186 1.753-1.186 2.885 0 1.165.396 2.142 1.186 2.933.79.79 1.768 1.186 2.933 1.186 1.335 0 2.43-.567 3.285-1.7l9.055 5.402v.4c0 1.165.395 2.142 1.186 2.933.79.79 1.768 1.186 2.932 1.186 1.133 0 2.094-.396 2.885-1.186.79-.79 1.186-1.768 1.186-2.933 0-1.132-.396-2.088-1.186-2.868-.79-.823-1.752-1.234-2.885-1.234-1.41 0-2.527.582-3.35 1.746L8.35 12.917l.064-.401-.064-.32 9.119-5.45c.748 1.101 1.843 1.651 3.285 1.651 1.133 0 2.094-.395 2.885-1.185.79-.791 1.186-1.769 1.186-2.933z"/>
</svg>
